<?xml version="1.0" encoding="utf-8"?>
<!-- Generator: Adobe Illustrator 15.1.0, SVG Export Plug-In . SVG Version: 6.00 Build 0)  -->
<svg version="1.2" baseProfile="tiny" id="Layer_1" xmlns="http://www.w3.org/2000/svg" xmlns:xlink="http://www.w3.org/1999/xlink"
	 x="0px" y="0px" width="382px" height="175px" viewBox="0 99.5 382 175" xml:space="preserve">
<g>
	<path d="M79.063,197.291h8.548c0-0.457,0.05-0.961,0.05-1.519c0-2.981-0.809-7.839-4.907-7.839c-1.163,0-2.326,0.304-3.337,0.81
		l-1.265-4.857c1.618-0.808,3.59-1.417,5.764-1.417c8.042,0,10.015,7.435,10.015,14.062c0,6.219-1.921,12.845-5.917,17.045
		c-2.276,2.378-5.209,3.792-9.055,3.792c-2.428,0-4.5-0.757-5.866-1.414l1.72-5.159c1.163,0.557,2.529,0.961,3.996,0.961
		c4.603,0,7.082-5.009,7.839-9.006h-8.447L79.063,197.291z"/>
	<path d="M107.795,182.876l-2.679,13.86h6.929l2.631-13.86h6.322l-6.523,34.09h-6.271l2.628-14.464h-6.828l-2.731,14.464H94.95
		l6.524-34.09H107.795L107.795,182.876z"/>
	<path d="M133.395,182.876l-5.462,28.477h6.525l5.461-28.477h6.321l-5.46,28.477l2.631,0.204l-2.935,12.847h-5.11l1.264-7.437
		h-16.083l6.524-34.09L133.395,182.876L133.395,182.876z"/>
	<path d="M158.59,182.876l-1.67,8.649c-1.063,5.716-2.377,10.725-3.541,14.921h0.151c2.024-4.398,3.896-7.587,5.362-10.217
		l7.435-13.354h5.916l-6.474,34.09h-5.816l1.822-9.155c1.213-6.019,2.327-10.673,3.235-14.313h-0.15
		c-1.365,3.034-3.086,6.677-5.262,10.572l-7.282,12.896h-6.02l6.474-34.09L158.59,182.876L158.59,182.876z"/>
	<path d="M184.49,182.876l-2.885,14.821h0.71l8.344-14.821h6.929l-10.267,15.732c1.92,1.263,2.679,4.348,2.883,9.56
		c0.15,3.994,0.255,6.522,0.761,8.799h-6.071c-0.355-1.82-0.505-4.502-0.555-8.395c-0.104-4.098-0.658-6.223-3.089-6.223h-0.35
		l-2.934,14.617h-6.171l6.522-34.09H184.49L184.49,182.876z"/>
	<path d="M221.112,182.876l-6.423,34.09h-6.369l5.461-28.525h-5.312l-1.823,8.952c-1.313,6.374-2.829,13.304-6.473,16.895
		c-1.468,1.565-3.285,2.933-6.478,3.084l-0.958-5.512c1.672-0.355,2.781-1.162,3.69-2.327c1.673-2.124,3.14-6.375,4.149-11.583
		l2.985-15.072L221.112,182.876L221.112,182.876z"/>
	<path d="M244.539,193.297c0,7.231-2.378,16.336-6.88,20.837c-2.123,2.125-4.552,3.238-7.536,3.238
		c-7.383,0-8.446-7.386-8.446-11.127c0-6.93,2.375-16.035,7.081-20.637c2.022-1.973,4.504-3.136,7.482-3.136
		C243.63,182.472,244.539,189.248,244.539,193.297z M233.105,189.1c-3.135,3.184-4.906,12.692-4.906,17.75
		c0,1.923,0.254,4.958,2.887,4.958c0.708,0,1.467-0.353,2.071-1.01c3.388-3.34,4.855-14.316,4.855-18.007
		c0-2.177-0.304-4.755-2.63-4.755C234.574,188.036,233.816,188.389,233.105,189.1z"/>
	<path d="M270.843,182.876l-6.524,34.09h-6.319l5.461-28.525h-6.679l-5.41,28.525h-6.321l6.524-34.09H270.843z"/>
	<path d="M287.141,201.894h-7.487l-1.873,9.46h8.601l-1.113,5.612h-14.87l6.524-34.09h14.261l-1.114,5.564h-7.837l-1.671,8.095
		h7.636L287.141,201.894z"/>
	<path d="M317.133,182.876l-5.41,28.477l2.629,0.204l-2.935,12.847h-5.107l1.264-7.437h-13.908l-1.722,7.437h-4.852l1.818-12.901
		l2.324-0.203c1.572-2.729,2.937-5.66,4.05-8.75c1.317-3.64,2.275-7.432,2.935-11.125l1.618-8.549L317.133,182.876L317.133,182.876z
		 M303.63,193.243c-0.708,3.544-1.566,7.185-2.731,10.523c-0.912,2.68-1.921,5.058-3.288,7.588h7.741l4.35-22.865h-5.162
		L303.63,193.243z"/>
	<path d="M329.531,182.876l-1.67,8.649c-1.062,5.716-2.375,10.725-3.539,14.921h0.15c2.021-4.398,3.893-7.587,5.36-10.217
		l7.436-13.354h5.916l-6.474,34.09h-5.813l1.823-9.155c1.212-6.019,2.324-10.673,3.233-14.313h-0.149
		c-1.365,3.034-3.084,6.677-5.262,10.572l-7.281,12.896h-6.021l6.476-34.09L329.531,182.876L329.531,182.876z"/>
	<path d="M359.986,216.966h-6.374l2.481-14.012h-0.658c-2.938,0-4.453,4.453-5.211,6.627c-0.86,2.478-1.671,5.159-2.932,7.385
		h-6.629c1.518-2.477,2.531-5.612,3.644-8.497c1.214-3.133,3.085-6.777,6.12-7.637v-0.101c-2.431-0.809-4.705-3.185-4.705-7.433
		c0-3.034,1.215-5.566,3.089-7.284c2.425-2.276,6.121-3.288,9.912-3.288c2.832,0,5.462,0.304,7.079,0.659L359.986,216.966z
		 M358.724,187.783c-0.354-0.053-0.813-0.103-1.219-0.103c-3.486,0-5.358,2.935-5.358,6.222c0,2.428,1.211,4.602,3.742,4.602
		c0.404,0,0.76-0.05,0.963-0.101L358.724,187.783z"/>
</g>
<polygon points="121.184,251.532 90.218,221.104 45.58,249.405 68.587,203.579 33.591,175.225 82.812,175.256 105.819,129.43 
	113.229,175.281 281.1,172.165 329.194,169.871 329.518,169.667 118.638,169.53 109.066,110.334 79.36,169.503 15.803,169.462 
	60.997,206.072 31.288,265.243 88.925,228.702 133.263,264.624 "/>
</svg>
